<svg xmlns="http://www.w3.org/2000/svg" id="Layer_1" version="1.1" viewBox="0 0 221.58 29.6"><defs><style>.fill-blue{fill:#4285f4}.fill-white{fill:#fff}.fill-red{fill:#ea4335}</style></defs><path d="M9.04 29.6c-1.28 0-2.42-.16-3.42-.48s-1.87-.74-2.6-1.26a8.383 8.383 0 0 1-1.86-1.8C.65 25.38.27 24.69 0 24l4.68-2c.45 1.01 1.06 1.77 1.82 2.26.76.49 1.61.74 2.54.74s1.72-.17 2.28-.52c.56-.35.84-.76.84-1.24 0-.53-.23-.97-.7-1.3-.47-.33-1.27-.63-2.42-.9l-2.76-.6c-.61-.13-1.25-.35-1.9-.64-.65-.29-1.25-.67-1.78-1.12-.53-.45-.97-1-1.32-1.64-.35-.64-.52-1.39-.52-2.24 0-.96.21-1.81.62-2.56.41-.75.98-1.38 1.7-1.9s1.57-.92 2.54-1.2c.97-.28 2.02-.42 3.14-.42 1.87 0 3.53.37 5 1.1 1.47.73 2.55 1.9 3.24 3.5l-4.52 1.84c-.37-.77-.92-1.33-1.64-1.68-.72-.35-1.44-.52-2.16-.52s-1.4.15-1.96.46c-.56.31-.84.7-.84 1.18 0 .45.23.81.7 1.08s1.1.51 1.9.72l3 .72c2 .48 3.49 1.25 4.46 2.3.97 1.05 1.46 2.3 1.46 3.74 0 .85-.2 1.67-.6 2.44-.4.77-.97 1.46-1.7 2.06-.73.6-1.61 1.07-2.64 1.42-1.03.35-2.17.52-3.42.52Z" class="fill-blue"/><path d="M38.39 24.24c-.91 1.6-2.13 2.89-3.66 3.88-1.53.99-3.41 1.48-5.62 1.48-1.49 0-2.87-.26-4.14-.78a9.945 9.945 0 0 1-3.3-2.18 9.945 9.945 0 0 1-2.18-3.3c-.52-1.27-.78-2.66-.78-4.18 0-1.41.25-2.75.76-4.02a10.25 10.25 0 0 1 2.12-3.32c.91-.95 1.98-1.7 3.22-2.26 1.24-.56 2.61-.84 4.1-.84 1.57 0 2.97.26 4.2.78s2.25 1.24 3.08 2.16c.83.92 1.45 2.01 1.88 3.26.43 1.25.64 2.61.64 4.08v.48c-.03.16-.04.31-.04.44-.03.13-.04.28-.04.44H23.87c.11.8.33 1.49.66 2.06.33.57.75 1.05 1.24 1.44.49.39 1.03.67 1.62.84.59.17 1.19.26 1.8.26 1.2 0 2.19-.27 2.98-.82.79-.55 1.41-1.23 1.86-2.06l4.36 2.16Zm-4.76-7.6c-.03-.35-.14-.73-.34-1.16-.2-.43-.49-.83-.88-1.2s-.87-.68-1.44-.92-1.26-.36-2.06-.36c-1.12 0-2.11.32-2.96.96-.85.64-1.45 1.53-1.8 2.68h9.48Z" class="fill-red"/><path d="M53.28 26.88h-.32c-.61.75-1.35 1.39-2.22 1.92s-1.98.8-3.34.8a8.19 8.19 0 0 1-2.86-.5c-.89-.33-1.67-.79-2.34-1.38a6.088 6.088 0 0 1-1.56-2.12c-.37-.83-.56-1.73-.56-2.72s.2-1.93.6-2.74c.4-.81.96-1.51 1.68-2.1.72-.59 1.57-1.03 2.54-1.34.97-.31 2.03-.46 3.18-.46 1.28 0 2.33.1 3.16.3.83.2 1.51.41 2.04.62v-.6c0-1.04-.41-1.9-1.24-2.58-.83-.68-1.85-1.02-3.08-1.02-1.81 0-3.35.76-4.6 2.28l-3.8-2.6c2.08-2.61 4.92-3.92 8.52-3.92 3.04 0 5.36.71 6.96 2.14 1.6 1.43 2.4 3.54 2.4 6.34v11.76h-5.16v-2.08Zm0-5.88c-.61-.29-1.25-.53-1.9-.7-.65-.17-1.37-.26-2.14-.26-1.25 0-2.22.27-2.9.82-.68.55-1.02 1.22-1.02 2.02s.33 1.44.98 1.92c.65.48 1.41.72 2.26.72.69 0 1.33-.13 1.92-.38a4.69 4.69 0 0 0 1.5-1c.41-.41.73-.89.96-1.44.23-.55.34-1.11.34-1.7Z" style="fill:#fbbc05"/><path d="M61.95 9.36h4.92v2.72h.32c.24-.48.56-.92.96-1.32.4-.4.85-.75 1.34-1.05.49-.3 1.03-.54 1.6-.72.57-.18 1.14-.27 1.7-.27.69 0 1.29.07 1.78.22s.91.34 1.26.58l-1.4 4.68c-.32-.16-.67-.29-1.06-.38-.39-.09-.86-.14-1.42-.14-.72 0-1.37.14-1.96.42s-1.09.68-1.5 1.19-.73 1.11-.96 1.79-.34 1.43-.34 2.23v9.65h-5.24V9.36Z" class="fill-blue"/><path d="M95.49 23.96a10.94 10.94 0 0 1-3.58 4.06c-1.53 1.05-3.45 1.58-5.74 1.58-1.52 0-2.91-.26-4.18-.78a9.76 9.76 0 0 1-3.28-2.18 10.05 10.05 0 0 1-2.16-3.3c-.52-1.27-.78-2.66-.78-4.18s.26-2.92.78-4.2 1.24-2.38 2.16-3.3c.92-.92 2.01-1.64 3.28-2.16s2.66-.78 4.18-.78c2.27 0 4.17.52 5.72 1.56 1.55 1.04 2.68 2.39 3.4 4.04l-4.8 2c-.45-.91-1.03-1.59-1.74-2.06s-1.59-.7-2.66-.7c-.69 0-1.35.13-1.96.4-.61.27-1.15.64-1.62 1.12-.47.48-.83 1.07-1.1 1.76-.27.69-.4 1.47-.4 2.32s.13 1.63.4 2.32.63 1.28 1.1 1.76c.47.48 1.01.85 1.62 1.12.61.27 1.27.4 1.96.4 1.09 0 2.02-.25 2.78-.74.76-.49 1.37-1.21 1.82-2.14l4.8 2.08Z" style="fill:#34a853"/><path d="M97.74.32h5.24v8.04l-.32 3.56h.32c.56-.93 1.37-1.7 2.42-2.3 1.05-.6 2.23-.9 3.54-.9 2.53 0 4.41.75 5.62 2.24 1.21 1.49 1.82 3.53 1.82 6.12v11.88h-5.24V17.72c0-1.36-.32-2.39-.96-3.1-.64-.71-1.53-1.06-2.68-1.06-.72 0-1.36.15-1.92.46-.56.31-1.03.73-1.42 1.26-.39.53-.68 1.15-.88 1.86-.2.71-.3 1.46-.3 2.26v9.56h-5.24V.32Z" class="fill-red"/><path d="M119.96 28.96V.32h5.24v28.64h-5.24ZM131.67 6.72a3.39 3.39 0 0 1-2.38-.98 3.32 3.32 0 0 1-.72-1.06c-.17-.4-.26-.84-.26-1.32s.09-.92.26-1.32.41-.75.72-1.06a3.39 3.39 0 0 1 2.38-.98c.93 0 1.73.33 2.4.98.67.65 1 1.45 1 2.38s-.33 1.73-1 2.38c-.67.65-1.47.98-2.4.98Zm-2.6 22.24V9.36h5.24v19.6h-5.24ZM145.79 29.6c-1.28 0-2.42-.16-3.42-.48s-1.87-.74-2.6-1.26a8.383 8.383 0 0 1-1.86-1.8c-.51-.68-.89-1.37-1.16-2.06l4.68-2c.45 1.01 1.06 1.77 1.82 2.26.76.49 1.61.74 2.54.74s1.72-.17 2.28-.52c.56-.35.84-.76.84-1.24 0-.53-.23-.97-.7-1.3-.47-.33-1.27-.63-2.42-.9l-2.76-.6c-.61-.13-1.25-.35-1.9-.64-.65-.29-1.25-.67-1.78-1.12-.53-.45-.97-1-1.32-1.64s-.52-1.39-.52-2.24c0-.96.21-1.81.62-2.56.41-.75.98-1.38 1.7-1.9s1.57-.92 2.54-1.2c.97-.28 2.02-.42 3.14-.42 1.87 0 3.53.37 5 1.1 1.47.73 2.55 1.9 3.24 3.5l-4.52 1.84c-.37-.77-.92-1.33-1.64-1.68-.72-.35-1.44-.52-2.16-.52s-1.4.15-1.96.46c-.56.31-.84.7-.84 1.18 0 .45.23.81.7 1.08s1.1.51 1.9.72l3 .72c2 .48 3.49 1.25 4.46 2.3.97 1.05 1.46 2.3 1.46 3.74 0 .85-.2 1.67-.6 2.44-.4.77-.97 1.46-1.7 2.06-.73.6-1.61 1.07-2.64 1.42-1.03.35-2.17.52-3.42.52ZM158.77 13.84h-3.44V9.36h3.44v-6h5.24v6h4.8v4.48h-4.8v7.83c0 .47.05.9.14 1.3.09.4.27.73.54 1.01.37.44.91.66 1.6.66.45 0 .81-.05 1.08-.14s.52-.22.76-.38l1.48 4.6c-.61.29-1.27.51-1.98.66-.71.15-1.49.22-2.34.22-.99 0-1.87-.16-2.66-.47-.79-.31-1.45-.74-1.98-1.29-1.25-1.23-1.88-2.97-1.88-5.23v-8.78ZM183.54 26.88h-.32c-.61.75-1.35 1.39-2.22 1.92s-1.98.8-3.34.8c-1.01 0-1.97-.17-2.86-.5s-1.67-.79-2.34-1.38a6.088 6.088 0 0 1-1.56-2.12c-.37-.83-.56-1.73-.56-2.72s.2-1.93.6-2.74c.4-.81.96-1.51 1.68-2.1.72-.59 1.57-1.03 2.54-1.34s2.03-.46 3.18-.46c1.28 0 2.33.1 3.16.3.83.2 1.51.41 2.04.62v-.6c0-1.04-.41-1.9-1.24-2.58s-1.85-1.02-3.08-1.02c-1.81 0-3.35.76-4.6 2.28l-3.8-2.6c2.08-2.61 4.92-3.92 8.52-3.92 3.04 0 5.36.71 6.96 2.14 1.6 1.43 2.4 3.54 2.4 6.34v11.76h-5.16v-2.08Zm0-5.88c-.61-.29-1.25-.53-1.9-.7-.65-.17-1.37-.26-2.14-.26-1.25 0-2.22.27-2.9.82-.68.55-1.02 1.22-1.02 2.02s.33 1.44.98 1.92c.65.48 1.41.72 2.26.72.69 0 1.33-.13 1.92-.38a4.69 4.69 0 0 0 1.5-1c.41-.41.73-.89.96-1.44.23-.55.34-1.11.34-1.7ZM192.21 9.36h4.92v2.72h.32c.24-.48.56-.92.96-1.32.4-.4.85-.75 1.34-1.05.49-.3 1.03-.54 1.6-.72.57-.18 1.14-.27 1.7-.27.69 0 1.29.07 1.78.22s.91.34 1.26.58l-1.4 4.68c-.32-.16-.67-.29-1.06-.38-.39-.09-.86-.14-1.42-.14-.72 0-1.37.14-1.96.42-.59.28-1.09.68-1.5 1.19-.41.51-.73 1.11-.96 1.79-.23.68-.34 1.43-.34 2.23v9.65h-5.24V9.36ZM207.7 9.36h4.92v2.72h.32c.24-.48.56-.92.96-1.32.4-.4.85-.75 1.34-1.05.49-.3 1.03-.54 1.6-.72.57-.18 1.14-.27 1.7-.27.69 0 1.29.07 1.78.22s.91.34 1.26.58l-1.4 4.68c-.32-.16-.67-.29-1.06-.38-.39-.09-.86-.14-1.42-.14-.72 0-1.37.14-1.96.42-.59.28-1.09.68-1.5 1.19-.41.51-.73 1.11-.96 1.79-.23.68-.34 1.43-.34 2.23v9.65h-5.24V9.36Z" class="fill-white"/></svg>